<svg width="24" height="24" viewBox="0 0 24 24" fill="none" xmlns="http://www.w3.org/2000/svg">
<path d="M11.9821 9.11104L4.49941 15.7775C3.28374 16.8605 3.22948 18.7431 4.38075 19.8944V19.8944C5.53202 21.0457 7.41464 20.9914 8.49769 19.7758L15.1641 12.293M11.9821 9.11104C10.3912 7.52011 10.5484 5.77109 12.866 5.04518C12.1589 2.2167 15.6945 2.21679 16.7552 3.98457C18.5229 2.92389 21.3514 5.75232 20.2907 7.52009C22.0585 9.28785 21.7049 11.7627 19.23 11.4092C18.1262 13.7659 17.1648 13.6669 15.1641 12.293M11.9821 9.11104C12.6687 9.7447 13.1572 9.95832 14.2803 9.99496C14.2922 10.9161 14.4685 11.4222 15.1641 12.293" stroke="black" stroke-width="2"/>
</svg>
