<svg width="24" height="24" viewBox="0 0 24 24" fill="none" xmlns="http://www.w3.org/2000/svg">
<path d="M16 12C16 16.9706 13.0899 21 9.5 21M16 12H3M16 12C16 8.25607 14.349 5.04608 12 3.68976M9.5 21C15.5 21 17.4492 18.5162 20 14C22 14 22 12.5 22 11.5C22 11.5 22 10 20 10C18.5 6 16 3 9.5 3M9.5 21C7.99147 21 6.60297 20.2885 5.5 19.0946M3 12C3 9.59117 3.68347 7.40337 4.79654 5.78809M3 12C3 14.8818 3.97823 17.4473 5.5 19.0946M9.5 3C7.64986 3 5.98026 4.07029 4.79654 5.78809M9.5 3C10.3859 3 11.2304 3.24539 12 3.68976M4.79654 5.78809L12.5 19.5M12 3.68976L5.5 19.0946" stroke="black" stroke-width="2"/>
</svg>
