<svg width="24" height="24" viewBox="0 0 24 24" fill="none" xmlns="http://www.w3.org/2000/svg">
<path fill-rule="evenodd" clip-rule="evenodd" d="M11.3162 3.55132L10 3.11258V4.50001V6.1775C9.01992 6.41738 8.25714 6.79307 7.56581 7.34077C6.96501 7.81676 6.43163 8.41729 5.86965 9.08967L3.64018 7.23178L2 5.86496V8.00001V16.5V18.635L3.64018 17.2682L5.71519 15.5391C6.11849 16.178 6.59128 16.7679 7.18413 17.2813C7.94343 17.9389 8.85958 18.4367 10 18.7759V20V21H11C12.0476 21 12.9168 20.9043 13.7183 20.4991C14.4349 20.1368 15.0038 19.5735 15.5956 18.8539C17.2145 18.2882 18.4587 17.5616 19.4676 16.5209C20.5234 15.4318 21.2561 14.0651 21.9294 12.369L22.091 11.9619L21.9014 11.5671C21.0416 9.77674 20.1534 8.62959 18.9597 7.80485C17.9019 7.07406 16.658 6.64056 15.1914 6.17085C14.6781 5.26392 14.1106 4.69529 13.4231 4.31335C13.0556 4.10915 12.685 3.97606 12.3413 3.86709C12.1729 3.8137 12.0319 3.77184 11.8952 3.73125L11.8951 3.73125C11.7127 3.67711 11.538 3.62525 11.3162 3.55132ZM12 7.00001V5.86209C12.1733 5.92467 12.3191 5.98791 12.4519 6.06166C12.7975 6.2537 13.1724 6.58083 13.6056 7.44722L13.7945 7.82506L14.1971 7.95302C15.8969 8.49332 16.9636 8.85669 17.8228 9.45033C18.5686 9.96559 19.2124 10.6977 19.9036 12.0406C19.3286 13.4132 18.7536 14.3841 18.0316 15.1288C17.251 15.934 16.2337 16.5406 14.6871 17.0502L14.4035 17.1437L14.2176 17.3773C13.5912 18.1643 13.2025 18.5188 12.816 18.7142C12.6016 18.8226 12.3514 18.9002 12 18.9469V18V17.1935L11.2118 17.0227C9.96532 16.7525 9.12581 16.3171 8.49342 15.7695C7.85247 15.2144 7.36434 14.4926 6.89443 13.5528L6.32977 12.4235L5.35982 13.2318L4 14.365V10.135L5.35982 11.2682L6.12954 11.9097L6.76947 11.1387C6.85381 11.0371 6.93494 10.9391 7.01326 10.8445L7.01399 10.8436C7.76067 9.94162 8.25051 9.34992 8.80779 8.90841C9.36729 8.46515 10.02 8.16068 11.1505 7.98862L12 7.85931V7.00001ZM17 13C17.5523 13 18 12.5523 18 12C18 11.4477 17.5523 11 17 11C16.4477 11 16 11.4477 16 12C16 12.5523 16.4477 13 17 13Z" fill="black"/>
</svg>
