<svg width="24" height="24" viewBox="0 0 24 24" fill="none" xmlns="http://www.w3.org/2000/svg">
<path d="M8.72361 4.44721C8.39116 3.78231 8.87465 3 9.61803 3H14.382C15.1253 3 15.6088 3.78231 15.2764 4.44721L14.5723 5.85543C14.2234 6.55318 14.3121 7.39009 14.7994 7.99925L17.5617 11.4522C17.8454 11.8068 18 12.2474 18 12.7016V19C18 20.1046 17.1046 21 16 21H8C6.89543 21 6 20.1046 6 19V12.7016C6 12.2474 6.15456 11.8068 6.43826 11.4522L9.2006 7.99925C9.68793 7.39009 9.77659 6.55318 9.42772 5.85543L8.72361 4.44721Z" stroke="black" stroke-width="2"/>
</svg>
