<svg width="24" height="24" viewBox="0 0 24 24" fill="none" xmlns="http://www.w3.org/2000/svg">
<path fill-rule="evenodd" clip-rule="evenodd" d="M6.42654 5.55577C7.75157 4.62825 9.49797 4.10003 11.4261 4.01288L12.6425 1.9855L14.3575 3.0145L13.6964 4.11626C15.1774 4.32496 16.5109 4.81197 17.5735 5.55577C19.0481 6.58803 20 8.12486 20 10V11H19H18.4919C18.4331 14.5075 18.0488 17.1385 17.1444 18.9472C16.6357 19.9647 15.9489 20.7511 15.0472 21.2721C14.1523 21.7891 13.1234 22 12 22C10.8766 22 9.84767 21.7891 8.95285 21.2721C8.05111 20.7511 7.3643 19.9647 6.85557 18.9472C5.95119 17.1385 5.5669 14.5075 5.50811 11H5H4V10C4 8.12486 4.95188 6.58803 6.42654 5.55577ZM7.50854 11C7.56885 14.4191 7.94849 16.6609 8.64443 18.0528C9.0107 18.7853 9.44889 19.2489 9.9534 19.5404C10.4648 19.8359 11.1234 20 12 20C12.8766 20 13.5352 19.8359 14.0466 19.5404C14.5511 19.2489 14.9893 18.7853 15.3556 18.0528C16.0515 16.6609 16.4311 14.4191 16.4915 11H7.50854ZM16.4265 7.19423C17.133 7.68877 17.6129 8.29982 17.8431 9H6.15689C6.38706 8.29982 6.86698 7.68877 7.57346 7.19423C8.61812 6.46297 10.1544 6 12 6C13.8456 6 15.3819 6.46297 16.4265 7.19423Z" fill="black"/>
</svg>
