<svg width="24" height="24" viewBox="0 0 24 24" fill="none" xmlns="http://www.w3.org/2000/svg">
<g clip-path="url(#clip0_5_533)">
<path d="M21.0157 4.14858C21.4062 3.75805 21.4062 3.12489 21.0157 2.73436C20.6252 2.34384 19.992 2.34384 19.6015 2.73436L21.0157 4.14858ZM5.58336 10.8269L4.79848 10.2072L4.79848 10.2072L5.58336 10.8269ZM3.13299 13.9307L2.34811 13.311L3.13299 13.9307ZM19.9333 7.77216L18.9783 8.06889L19.9333 7.77216ZM15.8791 3.70865L15.5697 4.65957L15.8791 3.70865ZM10.2008 4.97817L9.41587 4.35852L10.2008 4.97817ZM15.5697 4.65957C16.5644 4.98325 17.5748 5.16608 18.4956 5.12791C19.4104 5.08999 20.3374 4.82683 21.0157 4.14858L19.6015 2.73436C19.4016 2.93426 19.0335 3.1039 18.4128 3.12963C17.7982 3.15511 17.0329 3.03245 16.1885 2.75772L15.5697 4.65957ZM19.6015 2.73436C18.9468 3.3891 18.6559 4.27879 18.5888 5.17981C18.5213 6.08483 18.671 7.07982 18.9783 8.06889L20.8882 7.47543C20.6344 6.65869 20.5391 5.921 20.5833 5.32846C20.6277 4.73192 20.8051 4.35917 21.0157 4.14858L19.6015 2.73436ZM3.33803 18.9978L4.01077 18.3251L2.59656 16.9109L1.92382 17.5836L3.33803 18.9978ZM5.42498 19.7393L4.75225 20.412L6.16646 21.8262L6.8392 21.1535L5.42498 19.7393ZM5.45935 20.412L4.39869 19.3514L2.98448 20.7656L4.04514 21.8262L5.45935 20.412ZM4.39869 19.3514L3.33803 18.2907L1.92382 19.7049L2.98448 20.7656L4.39869 19.3514ZM14.6517 10.5125L21.0157 4.14858L19.6015 2.73436L13.2375 9.09832L14.6517 10.5125ZM14.904 9.52326L13.1362 3.51286L11.2175 4.07719L12.9853 10.0876L14.904 9.52326ZM13.6625 10.7648L19.6729 12.5326L20.2372 10.6138L14.2268 8.84607L13.6625 10.7648ZM11.1162 14.0481L14.6517 10.5125L13.2375 9.09832L9.70199 12.6339L11.1162 14.0481ZM9.25984 7.78382L10.9856 5.59781L9.41587 4.35852L7.69007 6.54453L9.25984 7.78382ZM11.3634 13.0421L9.42926 6.86536L7.52065 7.463L9.45479 13.6398L11.3634 13.0421ZM10.1269 14.3003L16.1373 16.0681L16.7017 14.1494L10.6913 12.3816L10.1269 14.3003ZM4.39869 20.7656L8.28778 16.8765L6.87357 15.4623L2.98448 19.3514L4.39869 20.7656ZM8.28778 16.8765L11.1162 14.0481L9.70199 12.6339L6.87357 15.4623L8.28778 16.8765ZM3.91787 14.5503L6.36824 11.4465L4.79848 10.2072L2.34811 13.311L3.91787 14.5503ZM6.36824 11.4465L9.25984 7.78382L7.69007 6.54453L4.79848 10.2072L6.36824 11.4465ZM8.51736 15.8192L6.52004 10.4767L4.64668 11.177L6.64399 16.5196L8.51736 15.8192ZM18.0405 12.8526L12.4099 17.2979L13.6492 18.8676L19.2798 14.4224L18.0405 12.8526ZM12.4099 17.2979L9.19975 19.8322L10.439 21.402L13.6492 18.8676L12.4099 17.2979ZM7.24936 17.1129L12.6982 19.0263L13.3609 17.1392L7.91199 15.2259L7.24936 17.1129ZM4.75225 20.412C4.94751 20.2168 5.26409 20.2168 5.45935 20.412L4.04514 21.8262C4.63093 22.412 5.58067 22.412 6.16646 21.8262L4.75225 20.412ZM1.92382 17.5836C1.33803 18.1694 1.33803 19.1191 1.92382 19.7049L3.33803 18.2907C3.5333 18.486 3.5333 18.8026 3.33803 18.9978L1.92382 17.5836ZM7.61504 19.7393C7.01028 19.1345 6.02975 19.1345 5.42498 19.7393L6.8392 21.1535C6.66292 21.3298 6.37711 21.3298 6.20083 21.1535L7.61504 19.7393ZM4.01077 16.135C3.58249 15.7067 3.54257 15.0257 3.91787 14.5503L2.34811 13.311C1.34438 14.5824 1.45115 16.4038 2.59656 17.5492L4.01077 16.135ZM6.20083 21.1535C7.34624 22.2989 9.16765 22.4057 10.439 21.402L9.19975 19.8322C8.72437 20.2075 8.04332 20.1676 7.61504 19.7393L6.20083 21.1535ZM18.9783 8.06889C19.5641 9.95415 19.2768 11.8766 18.0405 12.8526L19.2798 14.4224C21.4507 12.7086 21.5906 9.73568 20.8882 7.47543L18.9783 8.06889ZM2.59656 17.5492C2.42028 17.373 2.42028 17.0871 2.59656 16.9109L4.01077 18.3251C4.61554 17.7203 4.61554 16.7398 4.01077 16.135L2.59656 17.5492ZM16.1885 2.75772C13.9559 2.03123 11.0825 2.24745 9.41587 4.35852L10.9856 5.59781C11.9376 4.39193 13.7838 4.07844 15.5697 4.65957L16.1885 2.75772Z" fill="black"/>
</g>
<defs>
<clipPath id="clip0_5_533">
<rect width="24" height="24" fill="white"/>
</clipPath>
</defs>
</svg>
