<svg width="24" height="24" viewBox="0 0 24 24" fill="none" xmlns="http://www.w3.org/2000/svg">
<path d="M12 3V9M12 3C14.4901 3 16.744 4.20606 18.3734 6M12 3C9.5099 3 7.25599 4.20606 5.62657 6M18.3734 6L16 10M18.3734 6C19.6496 7.40504 20.5427 9.17071 20.8662 11M5.62657 6L8 10M5.62657 6C4.35038 7.40504 3.45727 9.17071 3.13378 11M3.13378 11C3.04584 11.4973 3 11.9993 3 12.5C3 15.4411 4.92224 16.3398 7 17.1396M3.13378 11L6 12.5M20.8662 11C20.9542 11.4973 21 11.9993 21 12.5C21 15.6244 19.1018 16.4439 17 17.2884M20.8662 11L18 12.5M7 17.1396V19C7 19.2761 7.22386 19.5 7.5 19.5H11.1207M7 17.1396C8.52137 17.7251 10.1261 18.2576 11.1207 19.5M11.1207 19.5C11.1951 19.5929 11.266 19.6897 11.3333 19.7909C11.6158 20.2158 12.5662 20.2867 12.8789 19.8835C12.9836 19.7485 13.0927 19.6209 13.2057 19.5M17 17.2884V19C17 19.2761 16.7761 19.5 16.5 19.5H13.2057M17 17.2884C15.6746 17.8209 14.2682 18.3634 13.2057 19.5" stroke="black" stroke-width="2"/>
</svg>
