<svg width="24" height="24" viewBox="0 0 24 24" fill="none" xmlns="http://www.w3.org/2000/svg">
<circle cx="12" cy="12" r="2" stroke="black" stroke-width="2"/>
<path fill-rule="evenodd" clip-rule="evenodd" d="M13.4322 5.81354C14.0293 4.73025 15.1801 4 16.5 4C18.433 4 20 5.567 20 7.5C20 8.81993 19.2698 9.97071 18.1865 10.5678C17.5266 10.9316 17.0508 11.6093 16.9818 12.3981C16.7565 14.9741 14.4287 17.0337 11.867 16.9944C10.9093 16.9797 10.0764 17.564 9.68087 18.3484C9.18578 19.3302 8.17023 20 7 20C5.34315 20 4 18.6569 4 17C4 15.8298 4.66985 14.8142 5.65163 14.3191C6.43611 13.9235 7.02016 13.0906 7.00575 12.1333C6.96713 9.56791 9.04255 7.24574 11.6031 7.01862C12.3909 6.94875 13.0683 6.47357 13.4322 5.81354ZM16.5 2C14.4224 2 12.6153 3.15237 11.6806 4.84805C11.62 4.95801 11.5145 5.01863 11.4264 5.02644C7.81335 5.34691 4.95173 8.55948 5.00598 12.1634C5.0077 12.2776 4.9235 12.4464 4.7511 12.5333C3.12134 13.3552 2 15.0458 2 17C2 19.7614 4.23858 22 7 22C8.95425 22 10.6448 20.8787 11.4667 19.2489C11.5537 19.0764 11.7224 18.9924 11.8363 18.9941C15.4295 19.0493 18.6561 16.2103 18.9742 12.5724C18.9818 12.4853 19.0418 12.3801 19.152 12.3194C20.8476 11.3847 22 9.57761 22 7.5C22 4.46243 19.5376 2 16.5 2ZM13 12C13 12.5523 12.5523 13 12 13C11.4477 13 11 12.5523 11 12C11 11.4477 11.4477 11 12 11C12.5523 11 13 11.4477 13 12ZM15 12C15 13.6569 13.6569 15 12 15C10.3431 15 9 13.6569 9 12C9 10.3431 10.3431 9 12 9C13.6569 9 15 10.3431 15 12ZM8 17C8 17.5523 7.55228 18 7 18C6.44772 18 6 17.5523 6 17C6 16.4477 6.44772 16 7 16C7.55228 16 8 16.4477 8 17ZM17 8C17.5523 8 18 7.55228 18 7C18 6.44772 17.5523 6 17 6C16.4477 6 16 6.44772 16 7C16 7.55228 16.4477 8 17 8Z" fill="black"/>
</svg>
