<svg width="24" height="24" viewBox="0 0 24 24" fill="none" xmlns="http://www.w3.org/2000/svg">
<path d="M4.50002 21.5C5.57972 19.6548 6.67655 18.2142 8.00002 17.1298M15.5 14C11.8937 14.2066 9.95071 15.5314 8.00002 17.1298M8.00002 17.1298C12 20 17.5 19 20.5 14C17 10 14.0716 9.21055 9.73225 11.7561M6.00002 14.5C1.60501 10.7066 2.99999 6.5 6.0001 3.5C9.49999 6 11.2676 7.70969 9.73225 11.7561M6.00002 14.5C7.37653 13.3258 8.60469 12.4175 9.73225 11.7561M6.00002 14.5C5.75015 12.2945 5.71336 12.4359 6.49996 9" stroke="black" stroke-width="2"/>
</svg>
