<svg width="24" height="24" viewBox="0 0 24 24" fill="none" xmlns="http://www.w3.org/2000/svg">
<path fill-rule="evenodd" clip-rule="evenodd" d="M3.85795 18.7506L3.50444 19.1041L4.91865 20.5184L5.27216 20.1649L5.97925 20.8719C7.54134 22.434 10.074 22.434 11.6361 20.8719L10.2219 19.4577C9.44084 20.2388 8.17451 20.2388 7.39346 19.4577L6.68637 18.7506L8.80762 16.6294L9.51465 17.3364C11.0767 18.8985 13.6094 18.8985 15.1715 17.3364L13.7573 15.9222C12.9762 16.7033 11.7099 16.7033 10.9289 15.9222L10.2218 15.2152L11.6361 13.8009C13.5887 15.7535 16.7545 15.7534 18.7071 13.8008L19.4142 13.0937L20.1213 12.3866L19.4142 11.6795L16.5858 8.85118L22.2428 3.19424L20.8286 1.78003L15.1716 7.43697L12.3431 4.60846L11.636 3.90135L10.9289 4.60846L10.2218 5.31557C8.26917 7.26819 8.26917 10.434 10.2218 12.3866L10.2219 12.3867L8.80762 13.801L8.10043 13.0938C7.31939 12.3127 7.31939 11.0464 8.10043 10.2653L6.68622 8.85114C5.12412 10.4132 5.12412 12.9459 6.68622 14.508L7.39341 15.2152L5.27216 17.3364L4.56503 16.6293C3.78399 15.8482 3.78399 14.5819 4.56503 13.8009L3.15082 12.3867C1.58872 13.9488 1.58872 16.4814 3.15082 18.0435L3.85795 18.7506ZM13.0503 12.3867C14.2219 13.5582 16.1213 13.5582 17.2929 12.3866L15.1716 10.2654L13.0503 12.3867ZM13.7574 8.85118L11.6361 10.9725L11.636 10.9724C10.4644 9.80085 10.4644 7.90135 11.636 6.72978L13.7574 8.85118ZM13.7575 4.60846L16.5859 1.78003L18.0001 3.19424L15.1717 6.02267L13.7575 4.60846ZM22.2428 7.43692L20.8286 6.02271L18.0001 8.85113L19.4143 10.2653L22.2428 7.43692Z" fill="black"/>
</svg>
